<?xml version="1.0" encoding="UTF-8" standalone="no"?>
<!DOCTYPE svg PUBLIC "-//W3C//DTD SVG 1.1//EN" "http://www.w3.org/Graphics/SVG/1.1/DTD/svg11.dtd">
<svg width="100%" height="100%" viewBox="0 0 2218 635" version="1.1" xmlns="http://www.w3.org/2000/svg" xmlns:xlink="http://www.w3.org/1999/xlink" xml:space="preserve" xmlns:serif="http://www.serif.com/" style="fill-rule:evenodd;clip-rule:evenodd;">
    <g transform="matrix(1,0,0,1,-643.136,-922.068)">
        <g id="Laag-1" serif:id="Laag 1" transform="matrix(4.16667,0,0,4.16667,0,0)">
            <g transform="matrix(0,1,1,0,346.94,325.12)">
                <path d="M-38.755,-38.755L38.755,-38.755" style="fill:none;fill-rule:nonzero;stroke:rgb(117,115,115);stroke-width:2px;"/>
            </g>
            <g transform="matrix(1,0,0,1,469.935,318.059)">
                <path d="M0,-20.185C-1.764,-20.185 -2.949,-19.014 -2.949,-17.317C-2.949,-15.62 -1.84,-14.903 -1.381,-14.636C-0.385,-14.072 0.574,-13.81 1.146,-13.81C1.646,-13.81 3.678,-14.715 3.678,-16.751C3.678,-18.6 2.03,-20.185 0,-20.185M0.038,-0.563C3.293,-0.563 5.324,-2.827 6.476,-4.147C5.02,-7.169 3.985,-9.053 2.795,-10.073C1.226,-11.393 -0.805,-11.77 -1.417,-11.77C-2.3,-11.77 -5.554,-10.037 -5.554,-6.036C-5.554,-2.866 -2.991,-0.563 0.038,-0.563M2.297,-13.319C5.518,-11.997 6.476,-10.45 8.467,-6.638C9.387,-7.957 10.154,-9.016 10.842,-10.222C11.035,-10.599 11.8,-11.997 11.8,-12.487C11.8,-13.054 11.225,-13.356 9.193,-13.467C8.695,-13.505 8.695,-13.581 8.695,-13.995C8.695,-14.26 8.735,-14.411 8.965,-14.411C9.387,-14.411 10.65,-14.26 12.797,-14.26C14.98,-14.26 16.283,-14.411 16.59,-14.411C16.936,-14.411 16.936,-14.298 16.936,-14.072C16.936,-13.732 16.936,-13.618 16.59,-13.581C15.098,-13.319 14.636,-12.863 13.065,-10.827C12.107,-9.619 10.039,-6.791 9.078,-5.429C10.572,-2.752 11.723,-0.679 14.138,-0.679C15.863,-0.679 17.242,-1.772 17.74,-3.432C17.932,-3.959 17.932,-3.959 18.196,-3.959C18.581,-3.959 18.581,-3.884 18.581,-3.659C18.581,-2.978 17.549,1.888 12.912,1.888C10.27,1.888 8.695,0.265 7.086,-2.943C4.292,0.53 1.761,1.925 -1.189,1.925C-5.06,1.925 -8.199,-0.679 -8.199,-5.129C-8.199,-6.677 -7.854,-8.147 -6.59,-9.619C-5.175,-11.281 -3.643,-11.997 -2.643,-12.487C-4.061,-13.356 -4.941,-14.562 -4.941,-16.223C-4.941,-18.977 -1.953,-22.11 1.416,-22.11C3.754,-22.11 6.054,-20.562 6.054,-17.998C6.054,-15.958 4.826,-14.715 2.297,-13.319" style="fill:rgb(117,115,115);fill-rule:nonzero;"/>
            </g>
            <g transform="matrix(1,0,0,1,507.19,305.838)">
                <path d="M0,3.392C4.406,3.392 7.395,0.979 7.395,-2.91C7.395,-6.644 4.979,-9.36 0.689,-9.36C0.189,-9.36 -1.649,-9.323 -1.761,-8.831C-1.916,-8.152 -1.994,-0.381 -1.957,3.242C-1.456,3.32 -0.805,3.392 0,3.392M-5.099,-8.303C-5.173,-8.795 -5.517,-9.208 -7.546,-9.36C-8.006,-9.4 -8.124,-9.435 -8.124,-9.813C-8.124,-10.228 -8.086,-10.228 -7.546,-10.228C-3.336,-10.228 -1.607,-10.417 1.417,-10.417C4.94,-10.417 6.781,-9.663 8.124,-8.718C9.694,-7.587 10.956,-5.701 10.956,-3.249C10.956,0.94 7.241,4.45 0.076,4.45C-0.805,4.45 -1.456,4.374 -1.957,4.335C-1.957,5.09 -1.957,8.751 -1.761,10.41C-1.494,12.563 -1.074,12.713 1.074,12.828C1.646,12.864 1.878,12.864 1.878,13.24C1.878,13.733 1.724,13.809 1.417,13.809C0.883,13.809 -0.269,13.694 -3.871,13.694C-4.521,13.694 -7.474,13.809 -8.044,13.809C-8.351,13.809 -8.504,13.768 -8.504,13.467C-8.504,12.978 -8.429,12.978 -7.778,12.901C-5.517,12.6 -5.328,11.355 -5.173,9.771C-4.981,7.58 -4.945,3.846 -4.945,-2.643C-4.945,-3.738 -4.945,-7.626 -5.099,-8.303" style="fill:rgb(117,115,115);fill-rule:nonzero;"/>
            </g>
            <g transform="matrix(1,0,0,1,533.325,305.535)">
                <path d="M0,4.111C-0.571,2.603 -3.373,-4.756 -4.024,-6.414C-6.091,-1.699 -6.326,-1.135 -8.466,4.111L0,4.111ZM-8.965,5.354C-10.186,8.373 -11.034,10.564 -11.034,11.658C-11.034,12.751 -9.843,13.093 -8.847,13.131C-8.121,13.167 -8.048,13.167 -8.048,13.695C-8.048,13.959 -8.048,14.108 -8.391,14.108C-9.231,14.108 -10.345,13.997 -11.798,13.997C-12.374,13.997 -14.98,14.108 -15.516,14.108C-15.825,14.108 -15.861,13.959 -15.861,13.77C-15.861,13.281 -15.825,13.281 -15.476,13.204C-14.25,12.977 -13.408,11.168 -12.641,9.544C-12.143,8.49 -5.976,-4.869 -4.941,-7.622C-4.672,-8.227 -4.521,-8.832 -4.327,-9.474C-4.212,-9.81 -4.024,-9.886 -3.486,-9.886C-2.871,-9.886 -2.452,-10.036 -2.144,-10.036C-1.916,-10.036 -1.837,-9.925 -1.647,-9.02C-1.339,-7.512 5.024,9.355 6.44,11.961C7.048,13.093 7.473,13.167 8.277,13.281C8.43,13.317 8.469,13.393 8.469,13.62C8.469,14.108 8.43,14.147 8.162,14.147C6.937,14.147 5.67,14.072 4.446,14.072C2.991,14.072 1.573,14.108 0.118,14.147C-0.19,14.108 -0.227,13.959 -0.227,13.695C-0.227,13.243 -0.152,13.243 0.463,13.204C1.304,13.131 2.529,13.016 2.529,11.961C2.529,11.168 0.843,6.563 0.385,5.354L-8.965,5.354Z" style="fill:rgb(117,115,115);fill-rule:nonzero;"/>
            </g>
            <g transform="matrix(1,0,0,1,552.149,307.118)">
                <path d="M0,0.981C4.059,0.981 6.284,-0.793 6.284,-4.602C6.284,-7.584 4.939,-10.564 0.573,-10.564C-2.262,-10.564 -2.3,-10.264 -2.38,-8.416C-2.415,-7.13 -2.453,-0.754 -2.495,0.681C-1.802,0.831 -1.148,0.981 0,0.981M-5.751,-9.095C-5.902,-9.998 -6.281,-10.564 -8.2,-10.641C-8.547,-10.678 -8.622,-10.715 -8.622,-10.98C-8.622,-11.357 -8.622,-11.469 -8.2,-11.469C-0.766,-11.469 0.878,-11.696 1.757,-11.696C6.932,-11.696 9.845,-9.282 9.845,-5.244C9.845,-2.681 8.579,-0.227 5.093,1.131C5.631,2.19 9.044,9.244 12.758,10.978C13.711,11.433 14.444,11.584 15.594,11.623C15.783,11.623 15.783,11.772 15.783,12.112C15.783,12.377 15.556,12.677 13.833,12.677C7.926,12.677 5.02,8.261 1.757,1.998C1.186,2.076 -0.536,2.19 -2.495,2.076C-2.495,3.318 -2.527,8.866 -2.3,10C-2.145,10.905 -1.842,11.357 0.46,11.584C1.146,11.656 1.226,11.656 1.226,12.037C1.226,12.299 1.186,12.527 0.878,12.527C-0.536,12.527 -2.878,12.453 -4.102,12.453C-5.326,12.453 -7.893,12.527 -8.43,12.527C-8.775,12.527 -8.892,12.527 -8.892,12.076C-8.892,11.656 -8.812,11.656 -8.127,11.544C-5.824,11.207 -5.751,10.224 -5.636,8.261C-5.521,6.563 -5.521,2.566 -5.521,0.564C-5.521,-1.961 -5.521,-7.434 -5.751,-9.095" style="fill:rgb(117,115,115);fill-rule:nonzero;"/>
            </g>
            <g transform="matrix(1,0,0,1,582.575,296.369)">
                <path d="M0,22.22C0.23,22.26 1.266,22.332 1.461,22.409C1.574,22.485 1.574,22.709 1.574,22.899C1.574,23.163 1.494,23.279 0.996,23.279C-0.154,23.279 -1.068,23.163 -3.948,23.163C-4.822,23.163 -8.656,23.279 -9.537,23.279C-9.881,23.279 -9.961,23.163 -9.961,22.824C-9.961,22.37 -9.846,22.37 -9.081,22.297C-5.94,21.955 -5.94,21.39 -5.824,16.9C-5.709,11.657 -5.631,6.409 -5.744,1.088C-13.904,1.055 -14.1,1.467 -14.98,4.488C-15.055,4.677 -15.243,4.713 -15.551,4.713C-15.863,4.713 -16.016,4.6 -16.016,4.334C-16.016,3.692 -15.479,1.166 -15.13,-0.267C-14.98,-0.833 -14.94,-1.059 -14.672,-1.059C-14.442,-1.059 -14.442,-1.059 -14.1,-0.872C-13.791,-0.72 -13.563,-0.682 -12.833,-0.609C-11.456,-0.493 -6.666,-0.458 -5.326,-0.458C-3.254,-0.458 5.786,-0.493 6.749,-0.72C7.207,-0.797 7.475,-1.022 7.63,-1.022C7.857,-1.022 7.973,-1.022 7.973,-0.833C7.973,-0.193 7.012,3.318 6.823,3.995C6.669,4.638 6.554,4.677 6.209,4.677C5.9,4.677 5.631,4.677 5.631,4.297C5.631,3.769 5.748,3.279 5.673,2.825C5.483,1.318 4.407,1.204 2.107,1.088L-2.527,1.088C-2.643,3.845 -2.676,10.975 -2.676,13.166C-2.676,21.767 -2.643,21.767 0,22.22" style="fill:rgb(117,115,115);fill-rule:nonzero;"/>
            </g>
            <g transform="matrix(1,0,0,1,592.395,319.118)">
                <path d="M0,-22.527C-0.841,-22.602 -0.921,-22.639 -0.921,-22.979C-0.921,-23.392 -0.841,-23.469 -0.463,-23.469C-0.269,-23.469 1.379,-23.431 2.295,-23.431C3.216,-23.431 3.948,-23.469 4.439,-23.469L4.709,-23.469C5.018,-23.469 5.173,-23.242 5.402,-22.942C7.735,-19.923 19.422,-7.809 21.687,-5.206C21.687,-11.924 21.687,-17.886 21.574,-19.281C21.379,-21.733 21.036,-22.454 17.854,-22.639C17.392,-22.639 17.356,-22.714 17.356,-23.054C17.356,-23.431 17.43,-23.507 17.774,-23.507C19.117,-23.507 20.881,-23.469 22.26,-23.469C23.561,-23.469 25.362,-23.507 27.126,-23.507C27.435,-23.507 27.51,-23.431 27.51,-23.13C27.51,-22.639 27.435,-22.639 26.703,-22.487C24.286,-21.998 23.983,-21.282 23.679,-18.376C23.405,-15.469 23.296,-11.697 23.296,-6.153C23.296,-3.962 23.371,-1.924 23.485,-0.906C23.521,-0.566 23.754,0.226 23.754,0.414C23.754,0.68 23.024,0.98 22.834,0.98C22.645,0.98 22.375,0.604 22.028,0.077C19.771,-3.093 17.854,-5.094 8.887,-14.451C6.895,-16.488 6.203,-17.356 4.902,-18.865C4.902,-17.509 4.902,-4.717 5.135,-3.134C5.327,-1.886 5.591,-0.605 8.658,-0.452C9.426,-0.417 9.499,-0.379 9.499,0.037C9.499,0.453 9.385,0.53 9.076,0.53C8.086,0.53 3.714,0.453 2.798,0.453C2.26,0.453 -0.195,0.53 -0.578,0.53C-0.881,0.53 -1.036,0.489 -1.036,-0.001C-1.036,-0.379 -0.956,-0.417 -0.229,-0.529C1.991,-0.906 2.527,-1.699 2.76,-4.263C3.101,-7.659 3.143,-13.17 3.143,-16.189C3.143,-19.923 3.143,-22.224 0,-22.527" style="fill:rgb(117,115,115);fill-rule:nonzero;"/>
            </g>
            <g transform="matrix(1,0,0,1,628.31,308.854)">
                <path d="M0,-2.49C6.318,-2.49 6.706,-2.529 7.393,-2.601C9.076,-2.829 9.35,-3.698 9.464,-5.056C9.539,-5.51 9.539,-5.621 9.962,-5.621C10.382,-5.621 10.382,-5.433 10.382,-5.02C10.382,-4.227 10.265,-2.49 10.265,-1.508C10.265,-0.718 10.265,0.643 10.382,1.473L10.382,1.811C10.382,2.114 10.227,2.151 9.919,2.151C9.501,2.151 9.421,2.075 9.384,1.545C9.27,-0.565 7.927,-1.018 5.974,-1.096C4.824,-1.17 3.753,-1.17 0,-1.208C0,8.641 0,8.641 0.65,8.982C1.148,9.245 1.836,9.282 4.137,9.282C9.384,9.282 10.763,8.49 11.949,6.114C12.177,5.66 12.526,4.451 12.717,4.451C13.373,4.451 13.488,4.602 13.488,4.828C13.488,5.471 12.6,9.205 12.337,10.075C12.177,10.565 12.144,10.829 11.801,10.829C10.798,10.829 3.908,10.604 0.187,10.604C-1.46,10.604 -5.101,10.829 -5.864,10.829C-6.362,10.829 -6.439,10.753 -6.439,10.376C-6.439,9.922 -6.362,9.922 -5.906,9.884C-4.104,9.698 -3.451,9.621 -3.264,7.619C-3.102,5.999 -3.102,0.378 -3.102,-1.697C-3.102,-3.433 -3.102,-10.377 -3.336,-11.245C-3.526,-12.15 -4.178,-12.225 -5.598,-12.338C-5.906,-12.338 -6.055,-12.338 -6.055,-12.793C-6.055,-13.208 -5.864,-13.242 -5.678,-13.242C-4.83,-13.242 -1.075,-13.131 -0.349,-13.131C0.263,-13.131 9.076,-13.208 10.111,-13.242L11.569,-13.282C12.337,-13.282 12.6,-13.319 12.6,-12.942C12.6,-12.638 12.372,-11.395 12.337,-11.133C12.222,-9.846 12.177,-8.907 12.177,-7.772C12.177,-7.509 12.063,-7.433 11.686,-7.433C11.147,-7.433 11.147,-7.509 11.071,-8.225C10.878,-11.055 10.763,-11.885 4.514,-11.885C3.908,-11.885 0.457,-11.885 0.149,-11.51C0,-11.357 0,-10.791 0,-10.563L0,-2.49Z" style="fill:rgb(117,115,115);fill-rule:nonzero;"/>
            </g>
            <g transform="matrix(1,0,0,1,653.449,307.118)">
                <path d="M0,0.981C4.062,0.981 6.287,-0.793 6.287,-4.602C6.287,-7.584 4.942,-10.564 0.577,-10.564C-2.262,-10.564 -2.297,-10.264 -2.375,-8.416C-2.41,-7.13 -2.452,-0.754 -2.49,0.681C-1.799,0.831 -1.147,0.981 0,0.981M-5.748,-9.095C-5.896,-9.998 -6.284,-10.564 -8.203,-10.641C-8.546,-10.678 -8.62,-10.715 -8.62,-10.98C-8.62,-11.357 -8.62,-11.469 -8.203,-11.469C-0.769,-11.469 0.884,-11.696 1.76,-11.696C6.938,-11.696 9.848,-9.282 9.848,-5.244C9.848,-2.681 8.581,-0.227 5.098,1.131C5.63,2.19 9.045,9.244 12.759,10.978C13.72,11.433 14.442,11.584 15.593,11.623C15.788,11.623 15.788,11.772 15.788,12.112C15.788,12.377 15.558,12.677 13.836,12.677C7.931,12.677 5.022,8.261 1.76,1.998C1.187,2.076 -0.54,2.19 -2.49,2.076C-2.49,3.318 -2.526,8.866 -2.297,10C-2.147,10.905 -1.839,11.357 0.463,11.584C1.148,11.656 1.229,11.656 1.229,12.037C1.229,12.299 1.187,12.527 0.884,12.527C-0.54,12.527 -2.875,12.453 -4.099,12.453C-5.323,12.453 -7.893,12.527 -8.431,12.527C-8.773,12.527 -8.891,12.527 -8.891,12.076C-8.891,11.656 -8.815,11.656 -8.122,11.544C-5.822,11.207 -5.748,10.224 -5.633,8.261C-5.52,6.563 -5.52,2.566 -5.52,0.564C-5.52,-1.961 -5.52,-7.434 -5.748,-9.095" style="fill:rgb(117,115,115);fill-rule:nonzero;"/>
            </g>
            <g transform="matrix(1,0,0,1,683.267,301.192)">
                <path d="M0,12.831C0,10.189 -1.568,9.284 -5.667,7.473C-9.464,5.775 -9.848,5.586 -10.92,4.569C-12.527,3.06 -12.607,1.397 -12.607,0.608C-12.607,-3.506 -9.384,-5.96 -4.518,-5.96C-3.561,-5.96 -2.254,-5.847 -1.186,-5.771C-0.113,-5.656 0.729,-5.544 0.842,-5.544C1.002,-5.544 1.076,-5.582 1.149,-5.656C1.267,-5.695 1.347,-5.731 1.534,-5.731C1.803,-5.731 1.803,-5.582 1.803,-5.317C1.803,-4.94 1.609,-3.318 1.883,-1.621C1.997,-0.904 2.032,-0.526 2.032,-0.3C2.032,-0.035 1.574,0.039 1.347,0.039C1.115,0.039 1.076,-0.074 0.807,-0.864C0.344,-2.11 -0.61,-4.752 -4.979,-4.752C-7.279,-4.752 -9.574,-3.356 -9.574,-0.45C-9.574,2.416 -7.932,3.133 -2.872,5.323C-0.228,6.455 3.377,8.002 3.377,12.264C3.377,14.527 2.221,16.187 1.036,17.058C-0.147,17.925 -2.031,18.791 -5.745,18.791C-8.887,18.791 -11.107,18.228 -11.836,18.228C-12.224,18.228 -12.259,18.566 -12.642,18.566C-13.024,18.566 -13.024,18.49 -13.14,17.736C-13.258,16.869 -13.676,13.773 -13.676,12.227C-13.676,11.814 -13.293,11.622 -12.912,11.622C-12.68,11.622 -12.607,11.774 -12.562,12C-12.259,14.378 -10.342,17.356 -5.054,17.356C-2.294,17.356 0,15.586 0,12.831" style="fill:rgb(117,115,115);fill-rule:nonzero;"/>
            </g>
            <g transform="matrix(1,0,0,1,325.521,311.187)">
                <path d="M0,-14.766C-0.05,-20.285 -0.199,-21.575 -2.236,-21.924C-3.879,-22.174 -4.023,-22.222 -4.023,-22.52C-4.023,-23.216 -3.928,-23.265 -3.533,-23.265C-2.634,-23.265 1.344,-23.065 2.141,-23.065C3.081,-23.065 7.259,-23.265 8.105,-23.265C8.454,-23.265 8.603,-23.117 8.603,-22.77C8.603,-22.174 8.554,-22.123 7.756,-22.074C5.372,-21.875 4.774,-21.228 4.376,-20.082C3.927,-18.592 3.878,-9.744 3.878,-7.755C3.878,-0.995 3.878,2.933 4.176,4.672C4.376,6.164 5.123,6.213 7.707,6.213C14.768,6.213 17.649,6.213 19.238,1.341C19.537,0.498 19.586,-0.1 19.935,-0.1C20.731,-0.1 20.881,0.048 20.881,0.398C20.881,0.697 20.731,2.585 19.487,7.158C19.288,8.002 19.188,8.499 18.74,8.499C17.749,8.499 16.652,8.201 7.707,8.201C0.448,8.201 -2.982,8.499 -3.779,8.499C-4.322,8.499 -4.472,8.351 -4.472,7.954C-4.472,7.306 -4.372,7.306 -3.73,7.257C-0.842,7.008 -0.598,5.416 -0.398,4.076C-0.05,1.193 0,-4.971 0,-10.094L0,-14.766Z" style="fill:rgb(117,115,115);fill-rule:nonzero;"/>
            </g>
            <g transform="matrix(1,0,0,1,362.524,305.314)">
                <path d="M0,4.166C-0.572,2.639 -3.36,-4.819 -4.013,-6.502C-6.079,-1.723 -6.308,-1.148 -8.449,4.166L0,4.166ZM-8.947,5.429C-10.166,8.488 -11.008,10.705 -11.008,11.813C-11.008,12.923 -9.822,13.269 -8.833,13.306C-8.105,13.344 -8.025,13.344 -8.025,13.88C-8.025,14.147 -8.025,14.301 -8.369,14.301C-9.21,14.301 -10.321,14.185 -11.775,14.185C-12.347,14.185 -14.946,14.301 -15.484,14.301C-15.788,14.301 -15.828,14.147 -15.828,13.957C-15.828,13.459 -15.788,13.459 -15.444,13.383C-14.22,13.154 -13.378,11.317 -12.617,9.674C-12.119,8.603 -5.964,-4.935 -4.928,-7.727C-4.665,-8.337 -4.511,-8.949 -4.316,-9.599C-4.202,-9.942 -4.013,-10.022 -3.475,-10.022C-2.867,-10.022 -2.444,-10.173 -2.14,-10.173C-1.912,-10.173 -1.832,-10.059 -1.643,-9.14C-1.333,-7.61 5.009,9.48 6.428,12.12C7.037,13.269 7.458,13.344 8.261,13.459C8.415,13.498 8.455,13.573 8.455,13.804C8.455,14.301 8.415,14.339 8.146,14.339C6.921,14.339 5.662,14.262 4.436,14.262C2.983,14.262 1.569,14.301 0.115,14.339C-0.188,14.301 -0.229,14.147 -0.229,13.88C-0.229,13.419 -0.149,13.419 0.464,13.383C1.305,13.306 2.524,13.191 2.524,12.12C2.524,11.317 0.842,6.651 0.384,5.429L-8.947,5.429Z" style="fill:rgb(117,115,115);fill-rule:nonzero;"/>
            </g>
            <g transform="matrix(1,0,0,1,372.812,319.079)">
                <path d="M0,-22.828C-0.842,-22.904 -0.917,-22.943 -0.917,-23.287C-0.917,-23.707 -0.842,-23.786 -0.459,-23.786C-0.27,-23.786 1.378,-23.746 2.295,-23.746C3.211,-23.746 3.938,-23.786 4.437,-23.786L4.705,-23.786C5.008,-23.786 5.163,-23.555 5.392,-23.248C7.723,-20.188 19.387,-7.915 21.643,-5.276C21.643,-12.083 21.643,-18.125 21.529,-19.54C21.334,-22.025 20.99,-22.751 17.819,-22.943C17.36,-22.943 17.321,-23.018 17.321,-23.363C17.321,-23.746 17.396,-23.822 17.739,-23.822C19.079,-23.822 20.836,-23.786 22.217,-23.786C23.515,-23.786 25.314,-23.822 27.071,-23.822C27.379,-23.822 27.454,-23.746 27.454,-23.439C27.454,-22.943 27.379,-22.943 26.651,-22.79C24.241,-22.293 23.939,-21.566 23.63,-18.621C23.361,-15.678 23.246,-11.853 23.246,-6.232C23.246,-4.014 23.326,-1.951 23.441,-0.917C23.476,-0.573 23.705,0.231 23.705,0.42C23.705,0.689 22.982,0.994 22.785,0.994C22.6,0.994 22.33,0.613 21.987,0.077C19.731,-3.136 17.819,-5.162 8.873,-14.645C6.881,-16.71 6.193,-17.589 4.894,-19.12C4.894,-17.742 4.894,-4.78 5.122,-3.174C5.317,-1.912 5.579,-0.61 8.643,-0.458C9.403,-0.421 9.485,-0.382 9.485,0.039C9.485,0.459 9.371,0.536 9.061,0.536C8.065,0.536 3.709,0.459 2.793,0.459C2.255,0.459 -0.189,0.536 -0.573,0.536C-0.882,0.536 -1.031,0.498 -1.031,-0.001C-1.031,-0.382 -0.957,-0.421 -0.229,-0.535C1.986,-0.917 2.524,-1.72 2.753,-4.32C3.097,-7.763 3.137,-13.345 3.137,-16.404C3.137,-20.188 3.137,-22.522 0,-22.828" style="fill:rgb(117,115,115);fill-rule:nonzero;"/>
            </g>
            <g transform="matrix(1,0,0,1,418.085,319.96)">
                <path d="M0,-25.086C2.485,-25.086 5.163,-24.588 5.583,-24.588C5.85,-24.588 6.004,-24.856 6.309,-24.856C6.653,-24.856 6.653,-24.627 6.653,-23.939C6.653,-20.267 6.846,-19.655 6.846,-19.044C6.846,-18.776 6.618,-18.661 6.192,-18.661C5.926,-18.661 5.891,-18.737 5.696,-19.58C5.278,-21.491 4.854,-21.912 4.551,-22.179C4.167,-22.486 2.329,-23.595 -1.34,-23.595C-8.18,-23.595 -11.89,-19.312 -11.89,-12.621C-11.89,-3.175 -4.739,-1.34 -1.07,-1.34C0.385,-1.34 2.907,-1.685 3.595,-2.334C4.012,-2.717 4.356,-2.983 4.356,-7.037C4.356,-10.67 4.356,-11.396 0.802,-11.588C-0.154,-11.625 -0.27,-11.625 -0.27,-12.046C-0.27,-12.505 -0.229,-12.621 0.154,-12.621C2.368,-12.621 4.477,-12.621 5.506,-12.658C7.076,-12.697 8.53,-12.812 9.101,-12.812C9.37,-12.812 9.37,-12.582 9.37,-12.391C9.37,-12.046 9.37,-12.007 9.023,-11.894C8.564,-11.779 7.761,-11.549 7.608,-10.633C7.417,-9.752 7.378,-6.616 7.378,-5.661C7.378,-4.399 7.417,-3.673 7.417,-3.137C7.417,-2.182 7.649,-1.798 7.649,-1.53C7.649,-1.302 7.495,-1.227 6.766,-1.072C3.979,-0.422 1.3,0 -1.683,0C-12.005,0 -15.449,-6.157 -15.449,-11.933C-15.449,-23.403 -4.935,-25.086 0,-25.086" style="fill:rgb(117,115,115);fill-rule:nonzero;"/>
            </g>
            <g transform="matrix(1,0,0,1,436.977,308.678)">
                <path d="M0,-2.525C6.307,-2.525 6.691,-2.563 7.374,-2.639C9.06,-2.869 9.33,-3.748 9.444,-5.125C9.52,-5.584 9.52,-5.698 9.942,-5.698C10.36,-5.698 10.36,-5.507 10.36,-5.087C10.36,-4.283 10.244,-2.525 10.244,-1.53C10.244,-0.727 10.244,0.649 10.36,1.491L10.36,1.834C10.36,2.141 10.211,2.179 9.902,2.179C9.484,2.179 9.404,2.102 9.37,1.568C9.255,-0.574 7.916,-1.033 5.964,-1.109C4.818,-1.186 3.749,-1.186 0,-1.223C0,8.756 0,8.756 0.652,9.1C1.15,9.368 1.835,9.407 4.133,9.407C9.37,9.407 10.743,8.603 11.929,6.194C12.155,5.736 12.502,4.511 12.695,4.511C13.343,4.511 13.458,4.665 13.458,4.894C13.458,5.544 12.582,9.33 12.313,10.209C12.155,10.705 12.124,10.974 11.774,10.974C10.785,10.974 3.897,10.745 0.193,10.745C-1.454,10.745 -5.084,10.974 -5.852,10.974C-6.35,10.974 -6.424,10.898 -6.424,10.516C-6.424,10.055 -6.35,10.055 -5.891,10.017C-4.097,9.828 -3.44,9.75 -3.253,7.724C-3.099,6.079 -3.099,0.382 -3.099,-1.721C-3.099,-3.481 -3.099,-10.515 -3.327,-11.394C-3.517,-12.313 -4.169,-12.389 -5.582,-12.504C-5.891,-12.504 -6.041,-12.504 -6.041,-12.963C-6.041,-13.385 -5.852,-13.42 -5.656,-13.42C-4.82,-13.42 -1.072,-13.305 -0.344,-13.305C0.268,-13.305 9.06,-13.385 10.098,-13.42L11.546,-13.461C12.313,-13.461 12.582,-13.499 12.582,-13.116C12.582,-12.81 12.353,-11.549 12.313,-11.281C12.199,-9.981 12.155,-9.024 12.155,-7.878C12.155,-7.61 12.044,-7.533 11.659,-7.533C11.128,-7.533 11.128,-7.61 11.052,-8.337C10.858,-11.205 10.743,-12.046 4.507,-12.046C3.897,-12.046 0.456,-12.046 0.154,-11.661C0,-11.508 0,-10.936 0,-10.706L0,-2.525Z" style="fill:rgb(117,115,115);fill-rule:nonzero;"/>
            </g>
            <g transform="matrix(1,0,0,1,323.011,353.654)">
                <path d="M0,-1.464C7.167,-1.404 7.167,-1.432 7.405,-3.553C7.436,-3.881 7.436,-3.941 7.734,-3.941C8.062,-3.941 8.151,-3.881 8.151,-3.612C8.151,-2.866 8.092,-2.059 8.092,-0.956C8.092,-0.028 8.151,0.956 8.151,1.82C8.151,2.059 7.973,2.089 7.793,2.089C7.436,2.089 7.436,2 7.346,1.255C7.227,0.299 6.926,-0.208 5.943,-0.33C4.926,-0.477 1.375,-0.477 0.03,-0.477C0.03,4.986 0.03,5.585 0.239,6.508C0.508,7.732 1.193,8.001 2.837,8.032C3.195,8.032 3.255,8.091 3.255,8.45C3.255,8.688 3.195,8.808 2.867,8.808C1.999,8.808 1.134,8.72 -1.044,8.72C-2.508,8.72 -3.434,8.808 -4.627,8.808C-5.018,8.808 -5.018,8.658 -5.018,8.48C-5.018,8.121 -4.956,8.091 -4.658,8.062C-3.493,7.943 -2.866,7.641 -2.628,6.63C-2.357,5.284 -2.33,0.986 -2.33,-3.195C-2.33,-9.138 -2.508,-9.287 -3.851,-9.524C-4.03,-9.556 -4.329,-9.612 -4.567,-9.612C-4.687,-9.612 -4.807,-9.792 -4.807,-9.973C-4.807,-10.152 -4.747,-10.241 -4.567,-10.241C-4.388,-10.241 -4.209,-10.213 -3.285,-10.213C-2.357,-10.182 -0.716,-10.152 2.3,-10.152C5.045,-10.152 6.659,-10.182 7.674,-10.213C8.719,-10.241 9.136,-10.272 9.467,-10.272C9.733,-10.272 9.765,-10.152 9.765,-10.003C9.765,-9.585 9.497,-7.375 9.497,-6.389C9.497,-5.674 9.497,-5.611 9.047,-5.611C8.808,-5.611 8.659,-5.611 8.629,-5.942C8.45,-7.792 8.39,-8.331 7.704,-8.69C6.689,-9.197 4.271,-9.255 3.046,-9.255C2.479,-9.255 0.478,-9.255 0.209,-8.927C0.061,-8.778 0.061,-8.449 0.061,-7.196L0,-1.464Z" style="fill:rgb(46,19,82);fill-rule:nonzero;"/>
            </g>
            <g transform="matrix(1,0,0,1,337.961,362.433)">
                <path d="M0,-20.185C0.598,-20.185 1.344,-19.436 1.344,-18.81C1.344,-18.185 0.628,-17.407 -0.089,-17.407C-0.716,-17.407 -1.402,-18.156 -1.402,-18.752C-1.402,-19.436 -0.626,-20.185 0,-20.185M-2.925,-11.318C-2.807,-11.376 -0.387,-12.66 0,-12.839C0.299,-12.989 0.449,-13.048 0.628,-13.048C0.896,-13.048 0.896,-12.93 0.896,-12.809C0.896,-12.601 0.807,-11.257 0.777,-10.958C0.747,-10.21 0.718,-8.719 0.718,-6.836C0.718,-5.913 0.718,-2.51 0.836,-1.823C0.986,-0.925 1.554,-0.805 2.778,-0.716C3.167,-0.716 3.196,-0.658 3.196,-0.358C3.196,-0.09 3.136,0 2.898,0C2.54,0 1.075,-0.06 -0.238,-0.06C-0.745,-0.06 -2.925,0 -3.374,0C-3.582,0 -3.643,-0.06 -3.643,-0.269C-3.643,-0.568 -3.582,-0.6 -3.195,-0.69C-2.12,-0.895 -1.79,-1.194 -1.611,-1.761C-1.371,-2.417 -1.371,-5.735 -1.371,-6.69C-1.371,-9.914 -1.371,-10.363 -2.747,-10.511C-3.313,-10.601 -3.313,-10.601 -3.313,-10.9C-3.313,-11.168 -3.075,-11.228 -2.925,-11.318" style="fill:rgb(46,19,82);fill-rule:nonzero;"/>
            </g>
            <g transform="matrix(1,0,0,1,356.111,357.654)">
                <path d="M0,-3.464C0,-2.358 -0.06,0.39 -0.06,1.016C-0.06,3.883 0.029,3.943 1.67,4.061C2.268,4.091 2.33,4.091 2.33,4.361C2.33,4.777 2.24,4.777 1.91,4.777C0.955,4.777 -0.15,4.72 -1.164,4.72C-2.447,4.72 -3.614,4.777 -4.031,4.777C-4.269,4.777 -4.3,4.72 -4.3,4.48C-4.3,4.24 -4.3,4.151 -3.912,4.123C-2.897,4.001 -2.539,3.614 -2.419,3.136C-2.18,2.267 -2.18,-0.299 -2.18,-1.342C-2.18,-3.403 -2.18,-4.568 -2.748,-5.374C-3.255,-6.06 -4.21,-6.33 -5.076,-6.33C-6.838,-6.33 -8.898,-5.374 -9.016,-5.194C-9.136,-5.046 -9.166,-0.447 -9.166,0.149C-9.166,3.496 -9.108,3.822 -7.436,4.001C-6.838,4.061 -6.778,4.061 -6.778,4.302C-6.778,4.688 -6.778,4.777 -7.167,4.777C-7.912,4.777 -9.108,4.72 -9.854,4.72C-10.362,4.72 -12.541,4.777 -12.988,4.777C-13.257,4.777 -13.318,4.747 -13.318,4.48C-13.318,4.091 -13.318,4.061 -12.93,4.001C-12.183,3.911 -11.555,3.614 -11.437,2.688C-11.286,1.793 -11.227,-0.895 -11.227,-2.298C-11.227,-2.805 -11.227,-5.075 -11.376,-5.374C-11.615,-5.821 -11.914,-5.821 -13.078,-5.821C-13.198,-5.821 -13.257,-5.852 -13.257,-6.15C-13.257,-6.448 -13.137,-6.478 -11.526,-7.227C-9.734,-8.059 -9.556,-8.241 -9.376,-8.241C-9.136,-8.241 -8.957,-8.241 -8.957,-8.121C-8.957,-7.734 -9.077,-6.448 -9.077,-6.12C-6.659,-7.194 -4.627,-7.97 -3.315,-7.97C0,-7.97 0,-4.837 0,-3.464" style="fill:rgb(46,19,82);fill-rule:nonzero;"/>
            </g>
            <g transform="matrix(1,0,0,1,367.507,354.609)">
                <path d="M0,3.016C0,2.569 -0.179,2.268 -0.924,2.268C-1.91,2.268 -3.016,2.717 -3.583,2.956C-5.018,3.553 -5.018,3.972 -5.018,4.481C-5.018,6.269 -4.18,6.57 -3.076,6.57C-2.748,6.57 -1.969,6.54 -0.865,6.09C-0.179,5.794 0,5.553 0,4.001L0,3.016ZM-5.403,2.509C-3.881,1.912 -1.581,1.554 0.03,1.373L0.03,-1.611C0.03,-2.477 -0.417,-3.494 -2.299,-3.494C-2.777,-3.494 -3.612,-3.404 -4.298,-3.104C-4.538,-3.014 -4.568,-2.894 -4.568,-2.746C-4.568,-2.537 -4.508,-2.268 -4.508,-1.94C-4.508,-1.671 -4.657,-1.611 -5.045,-1.492C-5.433,-1.376 -6.179,-1.164 -6.539,-1.164C-6.808,-1.164 -6.927,-1.286 -6.927,-1.521C-6.927,-2.777 -3.912,-5.075 -1.104,-5.075C1.436,-5.075 2.239,-3.643 2.239,-1.701C2.239,0.15 2.089,3.675 2.089,4.54C2.089,5.943 2.508,6.391 3.256,6.391C3.943,6.391 4.839,5.943 5.435,5.584L5.553,5.642L5.553,6.09C5.553,6.48 5.523,6.66 5.197,6.838C3.374,7.823 1.881,8.091 1.405,8.091C0.03,8.091 -0.029,6.989 -0.059,6.66C-1.521,7.346 -3.225,8.091 -4.776,8.091C-7.107,8.091 -7.404,6.243 -7.404,5.197C-7.404,3.374 -6.808,3.046 -5.403,2.509" style="fill:rgb(46,19,82);fill-rule:nonzero;"/>
            </g>
            <g transform="matrix(1,0,0,1,387.056,357.654)">
                <path d="M0,-3.464C0,-2.358 -0.059,0.39 -0.059,1.016C-0.059,3.883 0.031,3.943 1.674,4.061C2.272,4.091 2.329,4.091 2.329,4.361C2.329,4.777 2.24,4.777 1.912,4.777C0.958,4.777 -0.148,4.72 -1.163,4.72C-2.448,4.72 -3.612,4.777 -4.029,4.777C-4.269,4.777 -4.298,4.72 -4.298,4.48C-4.298,4.24 -4.298,4.151 -3.909,4.123C-2.896,4.001 -2.538,3.614 -2.418,3.136C-2.18,2.267 -2.18,-0.299 -2.18,-1.342C-2.18,-3.403 -2.18,-4.568 -2.746,-5.374C-3.254,-6.06 -4.208,-6.33 -5.074,-6.33C-6.836,-6.33 -8.896,-5.374 -9.018,-5.194C-9.134,-5.046 -9.165,-0.447 -9.165,0.149C-9.165,3.496 -9.107,3.822 -7.434,4.001C-6.836,4.061 -6.777,4.061 -6.777,4.302C-6.777,4.688 -6.777,4.777 -7.165,4.777C-7.911,4.777 -9.107,4.72 -9.853,4.72C-10.36,4.72 -12.539,4.777 -12.986,4.777C-13.255,4.777 -13.316,4.747 -13.316,4.48C-13.316,4.091 -13.316,4.061 -12.929,4.001C-12.181,3.911 -11.554,3.614 -11.435,2.688C-11.286,1.793 -11.226,-0.895 -11.226,-2.298C-11.226,-2.805 -11.226,-5.075 -11.375,-5.374C-11.614,-5.821 -11.912,-5.821 -13.076,-5.821C-13.195,-5.821 -13.255,-5.852 -13.255,-6.15C-13.255,-6.448 -13.137,-6.478 -11.524,-7.227C-9.731,-8.059 -9.553,-8.241 -9.376,-8.241C-9.134,-8.241 -8.956,-8.241 -8.956,-8.121C-8.956,-7.734 -9.075,-6.448 -9.075,-6.12C-6.657,-7.194 -4.627,-7.97 -3.313,-7.97C0,-7.97 0,-4.837 0,-3.464" style="fill:rgb(46,19,82);fill-rule:nonzero;"/>
            </g>
            <g transform="matrix(1,0,0,1,398.513,362.701)">
                <path d="M0,-13.167C1.734,-13.167 3.493,-12.659 3.493,-11.645C3.493,-10.989 2.45,-10.422 2.092,-10.422C1.942,-10.422 1.611,-10.63 1.314,-10.809C0.358,-11.347 -0.834,-11.615 -1.763,-11.615C-2.596,-11.615 -3.972,-11.406 -4.688,-9.346C-4.985,-8.48 -5.045,-7.615 -5.045,-6.987C-5.045,-3.551 -3.133,-1.521 -0.656,-1.521C0.51,-1.521 1.942,-1.912 2.956,-2.717L3.135,-2.717C3.225,-2.597 3.404,-2.418 3.404,-2.298C3.404,-2.091 1.164,0 -1.88,0C-5.316,0 -7.405,-2.539 -7.405,-5.852C-7.405,-9.941 -4.032,-13.167 0,-13.167" style="fill:rgb(46,19,82);fill-rule:nonzero;"/>
            </g>
            <g transform="matrix(1,0,0,1,407.045,362.433)">
                <path d="M0,-20.185C0.596,-20.185 1.343,-19.436 1.343,-18.81C1.343,-18.185 0.627,-17.407 -0.089,-17.407C-0.718,-17.407 -1.405,-18.156 -1.405,-18.752C-1.405,-19.436 -0.628,-20.185 0,-20.185M-2.926,-11.318C-2.808,-11.376 -0.387,-12.66 0,-12.839C0.298,-12.989 0.448,-13.048 0.627,-13.048C0.896,-13.048 0.896,-12.93 0.896,-12.809C0.896,-12.601 0.806,-11.257 0.779,-10.958C0.746,-10.21 0.717,-8.719 0.717,-6.836C0.717,-5.913 0.717,-2.51 0.835,-1.823C0.985,-0.925 1.553,-0.805 2.777,-0.716C3.165,-0.716 3.194,-0.658 3.194,-0.358C3.194,-0.09 3.136,0 2.898,0C2.54,0 1.074,-0.06 -0.239,-0.06C-0.745,-0.06 -2.926,0 -3.374,0C-3.584,0 -3.642,-0.06 -3.642,-0.269C-3.642,-0.568 -3.584,-0.6 -3.195,-0.69C-2.121,-0.895 -1.79,-1.194 -1.611,-1.761C-1.374,-2.417 -1.374,-5.735 -1.374,-6.69C-1.374,-9.914 -1.374,-10.363 -2.747,-10.511C-3.313,-10.601 -3.313,-10.601 -3.313,-10.9C-3.313,-11.168 -3.076,-11.228 -2.926,-11.318" style="fill:rgb(46,19,82);fill-rule:nonzero;"/>
            </g>
            <g transform="matrix(1,0,0,1,418.805,358.162)">
                <path d="M0,-4.09C0.926,-4.328 1.105,-4.508 1.105,-4.839C1.105,-5.91 -0.179,-7.674 -1.701,-7.674C-3.94,-7.674 -4.359,-4.508 -4.415,-3.106C-3.371,-3.285 -2.686,-3.431 0,-4.09M3.824,1.582L3.824,2.031C3.824,2.33 3.824,2.389 3.553,2.599C2.21,3.764 0.272,4.538 -1.522,4.538C-5.822,4.538 -6.655,0.806 -6.655,-1.402C-6.655,-6.09 -3.52,-8.628 -0.835,-8.628C-0.235,-8.628 2.508,-8.508 3.464,-5.164C3.553,-4.897 3.645,-4.897 3.766,-4.897C4.002,-4.897 4.002,-4.717 4.002,-4.418C4.002,-3.911 4.002,-3.822 3.586,-3.761C1.525,-3.431 -2.238,-2.716 -4.415,-2.24C-4.328,0.748 -3.191,3.016 -0.388,3.016C1.076,3.016 2.479,2.479 3.645,1.582L3.824,1.582Z" style="fill:rgb(46,19,82);fill-rule:nonzero;"/>
            </g>
            <g transform="matrix(1,0,0,1,431.518,358.162)">
                <path d="M0,-4.09C0.926,-4.328 1.105,-4.508 1.105,-4.839C1.105,-5.91 -0.18,-7.674 -1.701,-7.674C-3.941,-7.674 -4.359,-4.508 -4.418,-3.106C-3.373,-3.285 -2.688,-3.431 0,-4.09M3.821,1.582L3.821,2.031C3.821,2.33 3.821,2.389 3.555,2.599C2.21,3.764 0.27,4.538 -1.521,4.538C-5.823,4.538 -6.657,0.806 -6.657,-1.402C-6.657,-6.09 -3.522,-8.628 -0.835,-8.628C-0.238,-8.628 2.51,-8.508 3.463,-5.164C3.555,-4.897 3.642,-4.897 3.763,-4.897C4.005,-4.897 4.005,-4.717 4.005,-4.418C4.005,-3.911 4.005,-3.822 3.584,-3.761C1.523,-3.431 -2.238,-2.716 -4.418,-2.24C-4.326,0.748 -3.193,3.016 -0.388,3.016C1.078,3.016 2.48,2.479 3.642,1.582L3.821,1.582Z" style="fill:rgb(46,19,82);fill-rule:nonzero;"/>
            </g>
            <g transform="matrix(1,0,0,1,439.273,359.121)">
                <path d="M0,-14.485C-0.088,-15.828 -0.625,-16.006 -1.79,-16.006C-2.057,-16.006 -2.09,-16.037 -2.09,-16.275C-2.09,-16.574 -2.029,-16.604 -1.37,-16.812C-0.566,-17.081 1.586,-17.827 2.302,-17.827C2.452,-17.827 2.539,-17.827 2.539,-17.62C2.539,-17.23 2.239,-14.811 2.239,-13.557C2.239,-12.364 2.21,-10.961 2.21,-6.841C2.21,-5.289 2.21,0.564 2.452,1.522C2.599,2.207 3.018,2.417 4.392,2.566C4.867,2.624 4.93,2.624 4.93,2.895C4.93,3.312 4.779,3.342 4.242,3.342C3.855,3.342 2.51,3.253 1.224,3.253C0.092,3.253 -1.464,3.342 -1.911,3.342C-2.18,3.342 -2.236,3.282 -2.236,2.984C-2.236,2.655 -2.148,2.624 -1.821,2.596C-0.417,2.417 -0.146,1.818 -0.059,0.657C0.12,-1.614 0.12,-5.975 0.12,-8.482C0.12,-11.917 0.092,-13.29 0,-14.485" style="fill:rgb(46,19,82);fill-rule:nonzero;"/>
            </g>
            <g transform="matrix(1,0,0,1,463.541,351.296)">
                <path d="M0,3.255C-0.445,2.061 -2.627,-3.763 -3.136,-5.076C-4.746,-1.343 -4.925,-0.894 -6.599,3.255L0,3.255ZM-6.986,4.239C-7.939,6.627 -8.598,8.36 -8.598,9.227C-8.598,10.091 -7.673,10.359 -6.895,10.392C-6.328,10.42 -6.271,10.42 -6.271,10.839C-6.271,11.047 -6.271,11.167 -6.536,11.167C-7.194,11.167 -8.061,11.078 -9.197,11.078C-9.642,11.078 -11.674,11.167 -12.09,11.167C-12.332,11.167 -12.361,11.047 -12.361,10.899C-12.361,10.51 -12.332,10.51 -12.062,10.449C-11.107,10.27 -10.45,8.838 -9.851,7.555C-9.464,6.717 -4.659,-3.852 -3.851,-6.03C-3.643,-6.51 -3.521,-6.987 -3.372,-7.494C-3.285,-7.764 -3.136,-7.823 -2.715,-7.823C-2.24,-7.823 -1.911,-7.942 -1.669,-7.942C-1.491,-7.942 -1.433,-7.852 -1.283,-7.137C-1.045,-5.94 3.913,7.403 5.017,9.465C5.495,10.359 5.824,10.42 6.448,10.51C6.569,10.538 6.597,10.599 6.597,10.777C6.597,11.167 6.569,11.197 6.361,11.197C5.404,11.197 4.421,11.136 3.464,11.136C2.331,11.136 1.225,11.167 0.091,11.197C-0.152,11.167 -0.179,11.047 -0.179,10.839C-0.179,10.482 -0.116,10.482 0.357,10.449C1.016,10.392 1.973,10.302 1.973,9.465C1.973,8.838 0.657,5.194 0.3,4.239L-6.986,4.239Z" style="fill:rgb(46,19,82);fill-rule:nonzero;"/>
            </g>
            <g transform="matrix(1,0,0,1,481.418,350.16)">
                <path d="M0,4.061C0,2.688 -0.3,2.089 -0.749,1.642C-1.645,0.747 -3.105,0.627 -3.764,0.627C-7.315,0.627 -8.064,3.345 -8.064,5.135C-8.064,8.599 -5.795,10.93 -3.164,10.93C-2.09,10.93 -1.045,10.661 -0.092,10.151C-0.092,9.287 0,5.016 0,4.061M0.116,-0.178C0.116,-1.342 0.179,-5.044 -0.208,-5.972C-0.45,-6.54 -0.929,-6.54 -1.494,-6.568C-1.732,-6.568 -1.732,-6.688 -1.732,-6.868C-1.732,-7.105 -1.732,-7.105 -1.316,-7.315C0.029,-8.063 1.939,-8.957 2.09,-8.957C2.269,-8.957 2.477,-8.928 2.477,-8.749C2.477,-8.54 2.327,-7.136 2.298,-6.837C2.061,-3.793 2.027,4.957 2.027,6.152C2.027,7.346 2.027,9.644 2.178,10.539C2.269,11.198 2.477,11.495 3.043,11.495C3.493,11.495 4.03,11.377 4.717,11.045L4.983,11.045L4.983,11.437C4.983,11.884 4.658,11.974 4.151,12.124C2.835,12.511 1.104,13.018 0.566,13.018C0.267,13.018 0.087,12.869 0.029,12.481C0,12.213 -0.062,11.526 -0.062,10.899C-1.94,11.855 -3.377,12.481 -4.896,12.481C-7.765,12.481 -10.184,9.972 -10.184,6.481C-10.184,2.509 -7.198,-0.626 -2.84,-0.626C-1.524,-0.626 -0.687,-0.387 0.116,-0.178" style="fill:rgb(46,19,82);fill-rule:nonzero;"/>
            </g>
            <g transform="matrix(1,0,0,1,496.185,357.924)">
                <path d="M0,-3.434C0.328,-4.182 1.073,-5.913 1.073,-6.48C1.073,-7.225 0.57,-7.286 -0.417,-7.405C-0.658,-7.434 -0.687,-7.465 -0.687,-7.763C-0.687,-8.002 -0.658,-8.092 -0.417,-8.092C0.028,-8.092 0.986,-8.061 1.76,-8.061C2.688,-8.061 3.347,-8.092 3.851,-8.092C3.972,-8.092 3.972,-7.971 3.972,-7.736C3.972,-7.583 3.672,-7.375 3.525,-7.315C2.839,-6.957 -1.017,0.836 -2.062,2.955C-2.478,3.793 -2.601,4.121 -2.657,4.33C-2.716,4.508 -2.777,4.508 -3.136,4.568C-3.344,4.598 -3.644,4.687 -3.852,4.687C-3.973,4.687 -4.001,4.539 -4.06,4.27C-4.209,3.762 -4.867,1.97 -6.179,-1.046C-7.402,-3.825 -8.539,-6.39 -9.047,-7.046C-9.197,-7.225 -9.349,-7.315 -9.584,-7.465C-9.705,-7.524 -9.764,-7.583 -9.764,-7.826C-9.764,-8.061 -9.705,-8.121 -9.464,-8.121C-8.66,-8.121 -8.119,-8.061 -7.045,-8.061C-6.092,-8.061 -5.047,-8.121 -4.568,-8.121C-4.297,-8.121 -4.268,-7.971 -4.268,-7.704C-4.268,-7.494 -4.297,-7.405 -4.626,-7.346C-5.612,-7.225 -5.941,-7.197 -5.941,-6.51C-5.941,-5.853 -5.342,-4.388 -5.047,-3.643C-4.48,-2.299 -3.402,0.209 -2.569,2.121C-1.434,-0.297 -0.805,-1.612 0,-3.434" style="fill:rgb(46,19,82);fill-rule:nonzero;"/>
            </g>
            <g transform="matrix(1,0,0,1,504.27,362.433)">
                <path d="M0,-20.185C0.595,-20.185 1.344,-19.436 1.344,-18.81C1.344,-18.185 0.628,-17.407 -0.088,-17.407C-0.717,-17.407 -1.403,-18.156 -1.403,-18.752C-1.403,-19.436 -0.629,-20.185 0,-20.185M-2.927,-11.318C-2.807,-11.376 -0.388,-12.66 0,-12.839C0.299,-12.989 0.449,-13.048 0.628,-13.048C0.895,-13.048 0.895,-12.93 0.895,-12.809C0.895,-12.601 0.808,-11.257 0.778,-10.958C0.745,-10.21 0.715,-8.719 0.715,-6.836C0.715,-5.913 0.715,-2.51 0.836,-1.823C0.986,-0.925 1.553,-0.805 2.776,-0.716C3.163,-0.716 3.192,-0.658 3.192,-0.358C3.192,-0.09 3.135,0 2.896,0C2.539,0 1.074,-0.06 -0.238,-0.06C-0.745,-0.06 -2.927,0 -3.373,0C-3.585,0 -3.644,-0.06 -3.644,-0.269C-3.644,-0.568 -3.585,-0.6 -3.193,-0.69C-2.119,-0.895 -1.791,-1.194 -1.611,-1.761C-1.374,-2.417 -1.374,-5.735 -1.374,-6.69C-1.374,-9.914 -1.374,-10.363 -2.749,-10.511C-3.314,-10.601 -3.314,-10.601 -3.314,-10.9C-3.314,-11.168 -3.077,-11.228 -2.927,-11.318" style="fill:rgb(46,19,82);fill-rule:nonzero;"/>
            </g>
            <g transform="matrix(1,0,0,1,516.031,358.162)">
                <path d="M0,-4.09C0.924,-4.328 1.104,-4.508 1.104,-4.839C1.104,-5.91 -0.18,-7.674 -1.703,-7.674C-3.942,-7.674 -4.358,-4.508 -4.417,-3.106C-3.372,-3.285 -2.686,-3.431 0,-4.09M3.821,1.582L3.821,2.031C3.821,2.33 3.821,2.389 3.551,2.599C2.21,3.764 0.271,4.538 -1.524,4.538C-5.825,4.538 -6.657,0.806 -6.657,-1.402C-6.657,-6.09 -3.522,-8.628 -0.837,-8.628C-0.239,-8.628 2.507,-8.508 3.464,-5.164C3.551,-4.897 3.643,-4.897 3.764,-4.897C4.001,-4.897 4.001,-4.717 4.001,-4.418C4.001,-3.911 4.001,-3.822 3.584,-3.761C1.523,-3.431 -2.24,-2.716 -4.417,-2.24C-4.33,0.748 -3.193,3.016 -0.388,3.016C1.074,3.016 2.477,2.479 3.643,1.582L3.821,1.582Z" style="fill:rgb(46,19,82);fill-rule:nonzero;"/>
            </g>
            <g transform="matrix(1,0,0,1,529.849,362.461)">
                <path d="M0,-12.688C0.088,-12.688 0.238,-12.748 0.358,-12.748C0.537,-12.748 0.566,-12.688 0.596,-12.331C0.686,-11.435 0.772,-10.36 0.772,-9.853C0.772,-9.584 0.717,-9.524 0.329,-9.524C0.15,-9.524 0.121,-9.584 0,-9.883C-0.062,-10.062 -0.837,-12.001 -3.076,-12.001C-4.929,-12.001 -5.254,-10.748 -5.254,-10.089C-5.254,-8.747 -4.329,-8.298 -1.761,-7.075C-0.508,-6.449 1.462,-5.494 1.462,-3.284C1.462,0.238 -3.047,0.238 -3.764,0.238C-5.433,0.238 -6.777,-0.12 -7.197,-0.12C-7.585,-0.12 -7.706,-0.12 -7.706,-0.416C-7.706,-0.627 -7.644,-1.433 -7.644,-1.73C-7.644,-2.03 -7.765,-3.462 -7.765,-3.641C-7.765,-3.791 -7.672,-3.879 -7.314,-3.879C-7.164,-3.879 -7.136,-3.821 -7.048,-3.406C-6.599,-1.522 -4.808,-0.686 -3.284,-0.686C-1.432,-0.686 -0.807,-1.819 -0.807,-2.805C-0.807,-4.209 -1.974,-4.866 -3.584,-5.612C-5.495,-6.509 -7.228,-7.374 -7.228,-9.462C-7.228,-10.868 -6.27,-12.926 -2.513,-12.926C-1.432,-12.926 -0.271,-12.688 0,-12.688" style="fill:rgb(46,19,82);fill-rule:nonzero;"/>
            </g>
            <g transform="matrix(1,0,0,1,252.214,317.171)">
                <path d="M0,-39.528C4.158,-63.645 -24.953,-70.506 -33.757,-51.022C-44.182,-27.951 10.465,32.069 -22.424,56.347C-24.486,46.754 -31.495,42.046 -29.504,28.452C-27.448,32.726 -28.02,44.426 -19.234,42.29C-7.05,13.762 -43.634,-15.433 -43.668,-44.053C-43.691,-63.749 -27.031,-71.13 -22.457,-95.875C-17.051,-77.16 0.4,-65.418 2.077,-51.171C2.56,-47.096 2.702,-41.19 -0.417,-34.953L0,-39.528Z" style="fill:rgb(46,19,82);"/>
            </g>
            <g transform="matrix(1,0,0,1,154.357,319.446)">
                <path d="M0,-8.681C-0.237,1.999 8.456,12.814 15.581,15.02C9.863,9.357 5.218,3.927 5.665,-4.497C7.787,-44.452 68.077,-23.748 48.163,15.02C67.813,12.403 57.806,39.233 45.334,37.331C40.178,36.198 37.903,26.817 49.576,23.382C40.148,20.991 34.362,30.379 38.241,38.732C54.738,47.283 70.666,29.788 65.156,12.23C63.206,6.01 58.77,5.441 56.664,6.659C75.912,-37.848 1.048,-55.964 0,-8.681" style="fill:rgb(46,19,82);"/>
            </g>
            <g transform="matrix(1,0,0,1,252.58,298.012)">
                <path d="M0,29.097C0,29.097 -3.491,27.32 -6.31,30.765C-11.455,37.055 -10.959,57.324 7.875,62.739L7.809,62.617C6.05,61.683 4.543,60.08 3.447,58.034C-0.309,56.357 -3.24,52.074 -3.732,46.76C-4.399,39.578 -0.396,33.337 5.208,32.82C5.274,32.814 5.442,32.628 5.646,32.38C2.74,28.349 0.992,23.327 0.992,17.862C0.992,4.631 11.111,-6.092 23.591,-6.092C34.701,-6.092 43.917,2.411 45.814,13.611C53.017,-33.642 -23.44,-19.764 0,29.097" style="fill:rgb(46,19,82);"/>
            </g>
        </g>
    </g>
</svg>
